<?xml version="1.0" standalone="no"?>
<!DOCTYPE svg PUBLIC "-//W3C//DTD SVG 20010904//EN"
 "http://www.w3.org/TR/2001/REC-SVG-20010904/DTD/svg10.dtd">
<svg version="1.0" xmlns="http://www.w3.org/2000/svg"
 width="574.000000pt" height="594.000000pt" viewBox="0 0 574.000000 594.000000"
 preserveAspectRatio="xMidYMid meet">

<g transform="translate(0.000000,594.000000) scale(0.100000,-0.100000)"
fill="#000000" stroke="none">
<path d="M3405 5910 c-336 -116 -548 -392 -610 -795 -26 -162 -17 -487 18
-686 28 -155 74 -348 106 -442 l20 -57 -34 -123 c-30 -109 -86 -269 -128 -367
-9 -19 -55 -80 -102 -135 -191 -219 -425 -521 -682 -879 -80 -110 -148 -202
-152 -204 -7 -2 -49 217 -72 375 l-11 81 103 104 c85 84 112 119 151 193 69
133 89 213 95 385 8 217 -12 339 -128 776 -64 242 -109 452 -109 508 0 22 -5
36 -12 36 -37 -1 -261 -228 -340 -344 -57 -83 -132 -247 -157 -342 -94 -359 4
-785 275 -1190 l81 -122 6 -138 c4 -77 18 -202 31 -279 l24 -140 -180 -255
c-247 -348 -434 -601 -586 -792 l-127 -160 -8 43 c-26 147 -41 210 -60 253
l-21 49 24 16 c131 85 229 198 264 302 27 81 32 207 11 313 -23 123 -68 254
-173 501 -141 331 -187 467 -207 608 -3 26 -10 47 -14 47 -13 0 -146 -142
-195 -209 -96 -132 -157 -264 -203 -439 -26 -99 -28 -121 -28 -297 0 -164 4
-202 23 -280 76 -301 238 -506 438 -555 38 -9 43 -14 53 -53 7 -23 15 -119 18
-213 l6 -171 -90 -99 c-213 -233 -461 -456 -620 -559 -65 -41 -70 -48 -83
-103 -6 -24 -4 -38 9 -53 15 -18 23 -20 60 -14 57 9 254 170 488 398 269 263
446 467 728 842 171 228 174 231 267 291 51 34 121 76 155 93 l63 31 39 -24
c64 -41 221 -104 317 -128 74 -18 117 -22 254 -23 188 0 263 12 453 75 207 69
383 160 742 384 116 72 260 156 322 188 l111 57 -86 31 c-896 324 -1580 184
-2063 -425 -46 -58 -87 -105 -92 -105 -6 0 -55 -18 -110 -40 -55 -22 -101 -39
-102 -38 -2 3 660 982 749 1108 51 71 73 92 150 142 50 33 159 93 243 135
l152 76 78 -35 c126 -58 276 -99 488 -135 87 -14 162 -18 355 -18 215 1 258 4
348 23 386 84 625 243 790 528 39 67 86 173 80 179 -8 8 -987 -15 -1093 -25
-481 -45 -790 -177 -995 -424 -58 -70 -61 -72 -157 -105 -54 -18 -135 -51
-180 -72 -46 -21 -83 -35 -83 -32 0 3 30 44 67 92 415 532 817 894 1237 1116
l108 58 112 -22 c184 -35 298 -44 476 -38 410 15 727 150 989 423 83 86 241
298 241 324 0 8 -200 54 -310 72 -42 7 -162 12 -270 12 -163 0 -212 -4 -300
-23 -201 -43 -339 -100 -503 -207 -130 -84 -327 -280 -407 -405 l-55 -85 -115
-56 c-254 -124 -489 -298 -784 -579 -60 -57 -106 -95 -102 -84 18 49 65 246
72 303 l7 62 71 57 c154 125 260 253 341 413 131 259 157 525 116 1154 -12
182 -25 343 -29 357 l-7 26 -50 -17z"/>
</g>
</svg>
